<svg width="144" height="88" viewBox="0 0 144 88" fill="none" xmlns="http://www.w3.org/2000/svg">
<path opacity="0.8" fill-rule="evenodd" clip-rule="evenodd" d="M28.9129 16.4866C30.3937 11.8372 31.7717 8.94247 33.0448 7.8012C36.5703 4.64247 41.4448 6.36158 42.4811 6.6078C46.1216 7.47512 44.9379 1.76766 48.0614 0.607538C50.1429 -0.165509 51.8549 0.779449 53.1983 3.44241C54.3876 0.958016 56.2 -0.179927 58.6356 0.0230391C62.2895 0.330261 63.5682 12.587 68.5889 9.90407C73.6108 7.22003 79.7673 6.60669 82.3972 10.595C82.9656 11.4579 83.1834 10.1192 87.0495 5.54861C90.9156 0.97687 94.7705 -1.03727 102.679 1.62459C106.275 2.83351 109.232 6.11092 111.554 11.4557C111.554 19.0841 117.204 23.6004 128.503 25.0012C145.454 27.103 132.297 45.2025 111.554 50.5029C90.8095 55.8044 43.0506 58.6659 17.1337 45.2724C-0.144176 36.3452 3.78222 26.7492 28.9118 16.4866H28.9129Z" fill="url(#paint0_linear_874_25844)"/>
<path d="M71.4154 83.8981C88.6763 83.8981 102.669 80.6814 102.669 76.7134C102.669 72.7453 88.6763 69.5286 71.4154 69.5286C54.1544 69.5286 40.1617 72.7453 40.1617 76.7134C40.1617 80.6814 54.1544 83.8981 71.4154 83.8981Z" fill="url(#paint1_linear_874_25844)"/>
<path opacity="0.675" fill-rule="evenodd" clip-rule="evenodd" d="M124.18 85.6781C100.681 91.5319 20.4705 84.8363 11.9332 81.7785C7.77786 80.2889 4.03237 77.4884 0.697843 73.3759C0.324634 72.916 0.0900494 72.3607 0.0211957 71.774C-0.0476581 71.1874 0.0520298 70.5933 0.30874 70.0606C0.56545 69.5278 0.968703 69.078 1.4719 68.7633C1.9751 68.4485 2.55771 68.2815 3.1524 68.2817H143.317C146.226 75.9767 139.847 81.7751 124.18 85.6781Z" fill="url(#paint2_linear_874_25844)"/>
<path d="M95.3981 57.458L84.7099 45.0449C84.4572 44.7488 84.1431 44.5102 83.789 44.3456C83.435 44.181 83.0494 44.0942 82.6585 44.0911H59.6764C58.888 44.0911 58.1387 44.4504 57.625 45.0449L46.9368 57.458V64.2724H95.3981V57.458Z" fill="url(#paint3_linear_874_25844)"/>
<path d="M92.3696 64.523L83.0148 53.7114C82.7886 53.4561 82.5098 53.2522 82.1973 53.1135C81.8847 52.9747 81.5458 52.9044 81.2035 52.9073H61.1315C60.4425 52.9073 59.7691 53.1912 59.3202 53.7114L49.9654 64.523V70.4611H92.3696V64.523Z" fill="url(#paint4_linear_874_25844)"/>
<path d="M95.3981 72.0815C95.3981 73.0276 94.9693 73.8782 94.2925 74.4483L94.1552 74.5592C93.6186 74.9631 92.9635 75.1813 92.2902 75.1803H50.0458C49.6639 75.1803 49.2987 75.1116 48.9614 74.9851L48.7939 74.9186C48.2413 74.6744 47.7718 74.2763 47.4422 73.7726C47.1126 73.2689 46.9371 72.6811 46.9368 72.0804V57.5322H58.6948C59.9935 57.5322 61.0399 58.5936 61.0399 59.8813V59.898C61.0399 61.1867 62.0986 62.226 63.3973 62.226H78.9376C79.5619 62.2254 80.1605 61.9791 80.6023 61.5411C81.0441 61.1031 81.2932 60.5091 81.295 59.8891C81.295 58.5959 82.3425 57.5322 83.6401 57.5322H95.3992L95.3981 72.0815Z" fill="url(#paint5_linear_874_25844)"/>
<defs>
<linearGradient id="paint0_linear_874_25844" x1="74.4649" y1="40.9815" x2="74.4649" y2="-9.68636" gradientUnits="userSpaceOnUse">
<stop stop-color="#DEDEDE" stop-opacity="0"/>
<stop offset="1" stop-color="#A9A9A9" stop-opacity="0.3"/>
</linearGradient>
<linearGradient id="paint1_linear_874_25844" x1="68.1587" y1="83.8981" x2="68.1587" y2="69.5286" gradientUnits="userSpaceOnUse">
<stop stop-color="white" stop-opacity="0"/>
<stop offset="1" stop-color="#96A1C5" stop-opacity="0.373"/>
</linearGradient>
<linearGradient id="paint2_linear_874_25844" x1="72" y1="87.9999" x2="72" y2="64.4022" gradientUnits="userSpaceOnUse">
<stop stop-color="white" stop-opacity="0"/>
<stop offset="1" stop-color="#919191" stop-opacity="0.15"/>
</linearGradient>
<linearGradient id="paint3_linear_874_25844" x1="71.1675" y1="44.0911" x2="71.1675" y2="53.1626" gradientUnits="userSpaceOnUse">
<stop stop-color="#FFA32C"/>
<stop offset="1" stop-color="#FFCA86"/>
</linearGradient>
<linearGradient id="paint4_linear_874_25844" x1="76.8263" y1="70.4611" x2="76.8263" y2="51.9741" gradientUnits="userSpaceOnUse">
<stop stop-color="#FFF0DD"/>
<stop offset="1" stop-color="#FFECD3"/>
</linearGradient>
<linearGradient id="paint5_linear_874_25844" x1="71.168" y1="57.5322" x2="71.168" y2="75.1803" gradientUnits="userSpaceOnUse">
<stop stop-color="#F4BB73"/>
<stop offset="1" stop-color="#FFEED7"/>
</linearGradient>
</defs>
</svg>
